<?xml version="1.0" encoding="UTF-8"?>
<svg version="1.0" xmlns="http://www.w3.org/2000/svg" width="16" height="16" viewBox="0 0 342 342">
  <style>
    #favicon-path {
      fill: #222730;
    }

    @media (prefers-color-scheme: dark) {
      #favicon-path {
        fill: #c1b6c6;
      }
    }
  </style>
  <g transform="translate(0.000000,342.000000) scale(0.100000,-0.100000)" stroke="none">
    <path id="favicon-path" d="M1515 3414 c-520 -76 -927 -321 -1217 -734 -118 -167 -226 -423 -270
-643 -20 -96 -23 -143 -23 -327 0 -184 3 -231 23 -327 139 -688 667 -1216
1355 -1355 96 -20 143 -23 327 -23 184 0 231 3 327 23 604 122 1095 550 1292
1125 70 203 86 308 86 557 0 184 -3 231 -23 327 -122 604 -550 1095 -1125
1292 -189 65 -301 83 -527 86 -107 2 -208 1 -225 -1z m33 -901 c73 -113 154
-252 241 -415 l52 -97 -71 -46 c-38 -25 -74 -45 -78 -45 -4 0 -31 46 -61 103
-82 155 -178 322 -244 425 -33 51 -58 94 -56 96 4 4 142 85 145 86 1 0 33 -48
72 -107z m1031 7 c35 -5 66 -11 68 -14 9 -9 -59 -290 -103 -428 -196 -607
-517 -1008 -1004 -1258 -64 -32 -139 -68 -167 -79 l-52 -20 -55 76 -55 77 72
31 c359 157 623 372 824 670 138 206 280 566 337 855 23 113 22 111 48 105 13
-2 52 -9 87 -15z m-1556 -245 c83 -133 257 -444 257 -460 0 -10 -148 -100
-154 -94 -2 2 -23 42 -46 89 -54 107 -186 339 -257 449 -42 64 -52 86 -41 92
7 5 40 26 73 47 71 47 56 58 168 -123z" />
  </g>
</svg>